<svg id="logo.svg" xmlns="http://www.w3.org/2000/svg" width="243.312" height="40" viewBox="0 0 243.312 40">
  <defs>
    <style>
      .cls-1, .cls-3 {
        fill: #333;
      }

      .cls-1 {
        fill-rule: evenodd;
      }

      .cls-2 {
        fill: #ffd200;
      }

      .cls-3 {
        font-size: 24px;
        text-anchor: middle;
        font-family: FontAwesome5Free-Solid, "Font Awesome 5 Free";
      }
    </style>
  </defs>
  <path id="株式会社サンプル" class="cls-1" d="M701.057,32.277V29.132h-4.872v-2.76h4.392V23.228h-4.392v-3.96h-3.409v3.96h-0.912c0.168-.72.288-1.44,0.408-2.184l-3.168-.552a18.32,18.32,0,0,1-1.56,5.689V23.66H685V19.268h-3.409V23.66h-2.928v3.216H681.4a21.147,21.147,0,0,1-3.24,7.609,21.525,21.525,0,0,1,1.608,3.576,18.294,18.294,0,0,0,1.824-3.936v7.945H685V32.109c0.312,0.72.576,1.416,0.768,1.968l1.992-2.3c-0.384-.672-2.064-3.336-2.76-4.248V26.876h2.16c-0.1.12-.168,0.24-0.24,0.336a19.45,19.45,0,0,1,2.712,1.752,13.733,13.733,0,0,0,1.3-2.592h1.848v2.76H687.76v3.144h3.552a14.748,14.748,0,0,1-5.28,6.1,14.493,14.493,0,0,1,2.328,2.664,16.223,16.223,0,0,0,4.416-5.256v6.288h3.409V35.757a18.729,18.729,0,0,0,3.024,5.136,13.722,13.722,0,0,1,2.52-2.736,17.055,17.055,0,0,1-4.032-5.88h3.36Zm9.647-.1h3.528V28.82H703.959v3.36h3.264v5.112c-1.608.24-3.1,0.456-4.272,0.6l0.936,3.528c3.144-.624,7.321-1.44,11.185-2.256l-0.24-3.1c-1.368.24-2.76,0.456-4.128,0.672v-4.56Zm14.041-5.64V23.132h-2.088l1.68-1.44a17.864,17.864,0,0,0-3-2.52l-2.3,1.9a19.08,19.08,0,0,1,2.328,2.064h-3.049c-0.024-1.248-.024-2.52.024-3.768h-3.768c0,1.248.024,2.52,0.048,3.768H703.023V26.54h11.761c0.528,8.3,2.232,15.529,6.481,15.529,2.52,0,3.672-1.056,4.176-5.857a9.319,9.319,0,0,1-3.048-2.04c-0.12,2.928-.384,4.224-0.816,4.224-1.416,0-2.665-5.376-3.121-11.857h6.289ZM734.2,26.4a22.3,22.3,0,0,0,3.672-3.744,19.719,19.719,0,0,0,3.84,3.744H734.2Zm-1.9,3.192h11.137V27.62a28.6,28.6,0,0,0,3.864,2.184,17.441,17.441,0,0,1,2.256-3.192,20.255,20.255,0,0,1-9.985-7.3h-3.7A22.812,22.812,0,0,1,726.3,27.14a13.836,13.836,0,0,1,2.064,2.928,26.59,26.59,0,0,0,3.937-2.256v1.776Zm9.768,4.68-2.544,1.32c0.624,0.6,1.272,1.272,1.9,1.968-1.968.072-3.96,0.144-5.856,0.216,0.6-1.1,1.224-2.328,1.824-3.5h4.68Zm5.857,0v-3.24H727.935v3.24H733.1a31.508,31.508,0,0,1-1.416,3.624c-1.345.048-2.569,0.1-3.673,0.12l0.456,3.408c4.105-.192,9.913-0.456,15.434-0.768a14.1,14.1,0,0,1,.864,1.416l3.264-1.968a30.121,30.121,0,0,0-5.065-5.833h4.969Zm13.535-1.392c-0.48-.48-2.208-2.016-3.36-2.952a23.347,23.347,0,0,0,2.664-5.088l-1.944-1.272-0.6.12H757.7V19.292h-3.457v4.392H751v3.144h5.353a16.24,16.24,0,0,1-6.289,6.073,15.024,15.024,0,0,1,1.608,3.36,18.315,18.315,0,0,0,2.568-1.92v7.753H757.7V33.573c0.624,0.768,1.224,1.536,1.656,2.136Zm7.129,5.088V29.828h4.272v-3.36h-4.272V19.532h-3.6v6.937h-4.248v3.36h4.248v8.137h-5.256V41.4h13.729V37.965h-4.872Zm23.592-12.889V22.82a19.234,19.234,0,0,1,.168-2.376h-4.129a15.665,15.665,0,0,1,.144,2.376v2.256h-5.04V23.108a18.7,18.7,0,0,1,.168-2.424h-4.129a18.737,18.737,0,0,1,.169,2.4v1.992h-1.729a14.2,14.2,0,0,1-2.712-.264v3.936c0.7-.048,1.416-0.1,2.712-0.1h1.729v2.9a23.157,23.157,0,0,1-.145,2.712h4.057c-0.048-.6-0.12-1.536-0.12-2.712v-2.9h5.04v0.864c0,5.424-1.944,7.513-6.744,9.1l3.12,2.928c5.976-2.616,7.441-6.433,7.441-12.121V28.652h1.3c1.368,0,2.208,0,2.88.072v-3.84a15.406,15.406,0,0,1-2.9.192h-1.272Zm11.639-3.912-2.761,2.952a50.036,50.036,0,0,1,6.025,5.256l2.976-3.048A48.428,48.428,0,0,0,803.824,21.164ZM800.271,37.1l2.472,3.84a25.606,25.606,0,0,0,8.593-3.168,25.95,25.95,0,0,0,9.337-9.1l-2.256-4.1a23.2,23.2,0,0,1-9.169,9.6A24.7,24.7,0,0,1,800.271,37.1Zm42.1-13.849a1.272,1.272,0,1,1,1.272-1.272A1.28,1.28,0,0,1,842.369,23.252Zm-15.266-.84c-0.792,0-2.376-.12-3.12-0.216v4.1c0.624-.048,1.944-0.12,3.12-0.12h10.561a13.484,13.484,0,0,1-2.64,6.192,15.706,15.706,0,0,1-9.433,5.544l3.169,3.48a19.681,19.681,0,0,0,9.768-6.745c2.065-2.784,3.049-6.433,3.625-8.689,0.072-.288.168-0.648,0.288-1.008a2.977,2.977,0,1,0-3.048-2.976,1.368,1.368,0,0,0,.024.312,12.532,12.532,0,0,1-1.729.12H827.1Zm22.9,18.7a14.429,14.429,0,0,0,4.3-7.057c0.624-2.424.7-7.441,0.7-10.393a18.976,18.976,0,0,1,.192-2.424h-4.273a9.313,9.313,0,0,1,.264,2.472c0,3-.024,7.417-0.7,9.385a11.028,11.028,0,0,1-4.032,5.664Zm10.057,0.12a7.786,7.786,0,0,1,1.152-.792,27.705,27.705,0,0,0,8.113-6.5l-2.232-3.216A13.441,13.441,0,0,1,861.76,35.3V23.492a14.582,14.582,0,0,1,.192-2.256h-4.32a12.56,12.56,0,0,1,.216,2.232V37.245a9.181,9.181,0,0,1-.216,1.992Z" transform="translate(-626 -10)"/>
  <g id="icon">
    <circle id="bg" class="cls-2" cx="20" cy="20" r="20"/>
    <text id="building" class="cls-3" x="20.277" y="29.236"></text>
  </g>
</svg>
