<svg id="logo_white.svg" xmlns="http://www.w3.org/2000/svg" width="243.312" height="40" viewBox="0 0 243.312 40">
  <defs>
    <style>
      .cls-1, .cls-3 {
        fill: #333;
      }

      .cls-1 {
        fill-rule: evenodd;
      }

      .cls-2 {
        fill: #fff;
      }

      .cls-3 {
        font-size: 24px;
        text-anchor: middle;
        font-family: FontAwesome5Free-Solid, "Font Awesome 5 Free";
      }
    </style>
  </defs>
  <path id="株式会社サンプル" class="cls-1" d="M721.057,2809.28v-3.15h-4.872v-2.76h4.392v-3.14h-4.392v-3.96h-3.409v3.96h-0.912c0.168-.72.288-1.44,0.408-2.19l-3.168-.55a18.329,18.329,0,0,1-1.56,5.69v-2.52H705v-4.39h-3.409v4.39h-2.928v3.22H701.4a21.118,21.118,0,0,1-3.24,7.6,21.487,21.487,0,0,1,1.608,3.58,18.194,18.194,0,0,0,1.824-3.94v7.95H705v-9.96c0.312,0.72.576,1.41,0.768,1.97l1.992-2.31c-0.384-.67-2.064-3.33-2.76-4.25v-0.64h2.16c-0.1.12-.168,0.24-0.24,0.33a20.394,20.394,0,0,1,2.712,1.75,13.531,13.531,0,0,0,1.3-2.59h1.848v2.76H707.76v3.15h3.552a14.742,14.742,0,0,1-5.28,6.09,14.594,14.594,0,0,1,2.328,2.67,16.174,16.174,0,0,0,4.416-5.26v6.29h3.409v-6.31a18.689,18.689,0,0,0,3.024,5.13,13.793,13.793,0,0,1,2.52-2.73,17.188,17.188,0,0,1-4.032-5.88h3.36Zm9.647-.1h3.528v-3.36H723.959v3.36h3.264v5.11c-1.608.24-3.1,0.46-4.272,0.6l0.936,3.53c3.144-.62,7.321-1.44,11.185-2.25l-0.24-3.1c-1.368.24-2.76,0.45-4.128,0.67v-4.56Zm14.041-5.64v-3.41h-2.088l1.68-1.44a17.963,17.963,0,0,0-3-2.52l-2.3,1.9a19.047,19.047,0,0,1,2.328,2.06h-3.049c-0.024-1.25-.024-2.52.024-3.77h-3.768c0,1.25.024,2.52,0.048,3.77H723.023v3.41h11.761c0.528,8.3,2.232,15.53,6.481,15.53,2.52,0,3.672-1.06,4.176-5.86a9.257,9.257,0,0,1-3.048-2.04c-0.12,2.93-.384,4.23-0.816,4.23-1.416,0-2.665-5.38-3.121-11.86h6.289Zm9.455-.14a22.314,22.314,0,0,0,3.672-3.75,19.679,19.679,0,0,0,3.84,3.75H754.2Zm-1.9,3.19h11.137v-1.97a27.931,27.931,0,0,0,3.864,2.18,17.7,17.7,0,0,1,2.256-3.19,20.3,20.3,0,0,1-9.985-7.29h-3.7a22.834,22.834,0,0,1-9.577,7.82,13.747,13.747,0,0,1,2.064,2.93,27.164,27.164,0,0,0,3.937-2.26v1.78Zm9.768,4.68-2.544,1.32c0.624,0.6,1.272,1.27,1.9,1.97-1.968.07-3.96,0.14-5.856,0.21,0.6-1.1,1.224-2.33,1.824-3.5h4.68Zm5.857,0v-3.24H747.935v3.24H753.1a31.586,31.586,0,0,1-1.416,3.62c-1.345.05-2.569,0.1-3.673,0.12l0.456,3.41c4.105-.19,9.913-0.45,15.434-0.77a15.074,15.074,0,0,1,.864,1.42l3.264-1.97a30.056,30.056,0,0,0-5.065-5.83h4.969Zm13.535-1.39c-0.48-.48-2.208-2.02-3.36-2.96a23.286,23.286,0,0,0,2.664-5.08l-1.944-1.28-0.6.12H777.7v-4.39h-3.457v4.39H771v3.15h5.353a16.247,16.247,0,0,1-6.289,6.07,14.9,14.9,0,0,1,1.608,3.36,18.8,18.8,0,0,0,2.568-1.92v7.75H777.7v-8.52c0.624,0.77,1.224,1.54,1.656,2.14Zm7.129,5.09v-8.14h4.272v-3.36h-4.272v-6.94h-3.6v6.94h-4.248v3.36h4.248v8.14h-5.256v3.43h13.729v-3.43h-4.872Zm23.592-12.89v-2.26a19.459,19.459,0,0,1,.168-2.38h-4.129a15.758,15.758,0,0,1,.144,2.38v2.26h-5.04v-1.97a18.887,18.887,0,0,1,.168-2.43h-4.129a18.851,18.851,0,0,1,.169,2.4v2h-1.729a13.752,13.752,0,0,1-2.712-.27v3.94c0.7-.05,1.416-0.1,2.712-0.1h1.729v2.91a23.2,23.2,0,0,1-.145,2.71h4.057c-0.048-.6-0.12-1.54-0.12-2.71v-2.91h5.04v0.87c0,5.42-1.944,7.51-6.744,9.09l3.12,2.93c5.976-2.61,7.441-6.43,7.441-12.12v-0.77h1.3c1.368,0,2.208,0,2.88.07v-3.84a14.8,14.8,0,0,1-2.9.2h-1.272Zm11.639-3.92-2.761,2.96a49.825,49.825,0,0,1,6.025,5.25l2.976-3.05A49.091,49.091,0,0,0,823.824,2798.16Zm-3.553,15.94,2.472,3.84a25.611,25.611,0,0,0,8.593-3.17,25.983,25.983,0,0,0,9.337-9.09l-2.256-4.11a23.124,23.124,0,0,1-9.169,9.6A24.658,24.658,0,0,1,820.271,2814.1Zm42.1-13.85a1.27,1.27,0,1,1,1.272-1.27A1.276,1.276,0,0,1,862.369,2800.25Zm-15.266-.84c-0.792,0-2.376-.12-3.12-0.21v4.1c0.624-.05,1.944-0.12,3.12-0.12h10.561a13.449,13.449,0,0,1-2.64,6.19,15.719,15.719,0,0,1-9.433,5.55l3.169,3.48a19.665,19.665,0,0,0,9.768-6.75c2.065-2.78,3.049-6.43,3.625-8.69,0.072-.28.168-0.64,0.288-1a2.98,2.98,0,1,0-3.048-2.98,1.309,1.309,0,0,0,.024.31,11.931,11.931,0,0,1-1.729.12H847.1Zm22.9,18.7a14.43,14.43,0,0,0,4.3-7.06c0.624-2.42.7-7.44,0.7-10.39a18.911,18.911,0,0,1,.192-2.42h-4.273a9.241,9.241,0,0,1,.264,2.47c0,3-.024,7.41-0.7,9.38a11.016,11.016,0,0,1-4.032,5.67Zm10.057,0.12a7.954,7.954,0,0,1,1.152-.79,27.793,27.793,0,0,0,8.113-6.51l-2.232-3.21a13.411,13.411,0,0,1-5.329,4.58v-11.81a14.551,14.551,0,0,1,.192-2.25h-4.32a12.463,12.463,0,0,1,.216,2.23v13.78a9.234,9.234,0,0,1-.216,1.99Z" transform="translate(-646 -2787)"/>
  <g id="icon">
    <circle id="bg" class="cls-2" cx="20" cy="20" r="20"/>
    <text id="building" class="cls-3" x="20.277" y="29.237"></text>
  </g>
</svg>
